<svg width="123" height="117" viewBox="0 0 123 117" fill="none" xmlns="http://www.w3.org/2000/svg">
<circle cx="64.5" cy="58.5" r="56" stroke="#FFFF24" stroke-width="5"/>
<path d="M68.8687 73.4999H68.475C67.6814 73.4212 66.9336 73.0915 66.3402 72.5588C65.7467 72.026 65.3386 71.318 65.175 70.5374L60.15 47.2499L54.975 59.2499C54.8286 59.5853 54.5873 59.8706 54.2808 60.0705C53.9743 60.2704 53.6159 60.3762 53.25 60.3749H47.625C47.1277 60.3749 46.6508 60.1774 46.2992 59.8258C45.9475 59.4741 45.75 58.9972 45.75 58.4999C45.75 58.0027 45.9475 57.5257 46.2992 57.1741C46.6508 56.8225 47.1277 56.6249 47.625 56.6249H52.0125L56.7188 45.7687C57.0356 45.0402 57.5755 44.4311 58.2608 44.0293C58.9461 43.6274 59.7413 43.4536 60.5318 43.5329C61.3222 43.6121 62.0671 43.9404 62.6589 44.4702C63.2508 45.0001 63.6591 45.7043 63.825 46.4812L68.85 69.7499L74.025 57.7874C74.1657 57.445 74.4045 57.1519 74.7115 56.945C75.0185 56.7382 75.3798 56.6268 75.75 56.6249H81.375C81.8723 56.6249 82.3492 56.8225 82.7008 57.1741C83.0525 57.5257 83.25 58.0027 83.25 58.4999C83.25 58.9972 83.0525 59.4741 82.7008 59.8258C82.3492 60.1774 81.8723 60.3749 81.375 60.3749H76.9875L72.2812 71.2312C71.9939 71.8996 71.5182 72.4701 70.9123 72.8729C70.3064 73.2757 69.5963 73.4936 68.8687 73.4999Z" fill="white"/>
<circle cx="16.5" cy="85.5" r="16.5" fill="#FF003D"/>
</svg>
