<svg width="141" height="31" viewBox="0 0 141 31" fill="none" xmlns="http://www.w3.org/2000/svg">
<rect x="10.8789" y="5.98584" width="8.16233" height="17.6851" rx="4.08117" fill="#FF003D"/>
<rect width="8.16233" height="19.5896" rx="4.08117" transform="matrix(1 0 0 -1 21.7695 30.4727)" fill="#FFFF24"/>
<circle r="4.08117" transform="matrix(1 0 0 -1 25.8507 4.08119)" fill="#FFFF24"/>
<rect width="8.16233" height="19.5896" rx="4.08117" fill="#C505F6"/>
<circle cx="4.08117" cy="26.3917" r="4.08117" fill="#C505F6"/>
<path d="M48.4657 10H51.5617V22H48.4657V20.584C47.5377 21.752 46.2337 22.336 44.5537 22.336C42.9537 22.336 41.5777 21.728 40.4257 20.512C39.2897 19.28 38.7217 17.776 38.7217 16C38.7217 14.224 39.2897 12.728 40.4257 11.512C41.5777 10.28 42.9537 9.664 44.5537 9.664C46.2337 9.664 47.5377 10.248 48.4657 11.416V10ZM42.7537 18.448C43.3777 19.072 44.1697 19.384 45.1297 19.384C46.0897 19.384 46.8817 19.072 47.5057 18.448C48.1457 17.808 48.4657 16.992 48.4657 16C48.4657 15.008 48.1457 14.2 47.5057 13.576C46.8817 12.936 46.0897 12.616 45.1297 12.616C44.1697 12.616 43.3777 12.936 42.7537 13.576C42.1297 14.2 41.8177 15.008 41.8177 16C41.8177 16.992 42.1297 17.808 42.7537 18.448ZM61.0411 9.664C62.3531 9.664 63.4331 10.104 64.2811 10.984C65.1451 11.864 65.5771 13.08 65.5771 14.632V22H62.4811V15.016C62.4811 14.216 62.2651 13.608 61.8331 13.192C61.4011 12.76 60.8251 12.544 60.1051 12.544C59.3051 12.544 58.6651 12.792 58.1851 13.288C57.7051 13.784 57.4651 14.528 57.4651 15.52V22H54.3691V10H57.4651V11.344C58.2171 10.224 59.4091 9.664 61.0411 9.664ZM75.7869 10H79.0989L74.7309 22C74.1069 23.728 73.2749 24.976 72.2349 25.744C71.2109 26.528 69.9309 26.88 68.3949 26.8V23.92C69.2269 23.936 69.8829 23.76 70.3629 23.392C70.8589 23.024 71.2509 22.432 71.5389 21.616L66.6189 10H70.0029L73.1229 18.064L75.7869 10ZM84.8683 22L79.2283 5.2H82.8283L86.9323 18.112L91.0123 5.2H94.6363L88.9723 22H84.8683ZM104.906 20.512C103.674 21.728 102.17 22.336 100.394 22.336C98.6176 22.336 97.1136 21.728 95.8816 20.512C94.6656 19.28 94.0576 17.776 94.0576 16C94.0576 14.224 94.6656 12.728 95.8816 11.512C97.1136 10.28 98.6176 9.664 100.394 9.664C102.17 9.664 103.674 10.28 104.906 11.512C106.138 12.728 106.754 14.224 106.754 16C106.754 17.776 106.138 19.28 104.906 20.512ZM98.0656 18.376C98.6896 19 99.4656 19.312 100.394 19.312C101.322 19.312 102.098 19 102.722 18.376C103.346 17.752 103.658 16.96 103.658 16C103.658 15.04 103.346 14.248 102.722 13.624C102.098 13 101.322 12.688 100.394 12.688C99.4656 12.688 98.6896 13 98.0656 13.624C97.4576 14.248 97.1536 15.04 97.1536 16C97.1536 16.96 97.4576 17.752 98.0656 18.376ZM110.468 8.56C109.956 8.56 109.508 8.376 109.124 8.008C108.756 7.624 108.572 7.176 108.572 6.664C108.572 6.152 108.756 5.704 109.124 5.32C109.508 4.936 109.956 4.744 110.468 4.744C110.996 4.744 111.444 4.936 111.812 5.32C112.196 5.704 112.388 6.152 112.388 6.664C112.388 7.176 112.196 7.624 111.812 8.008C111.444 8.376 110.996 8.56 110.468 8.56ZM108.932 22V10H112.028V22H108.932ZM120.573 22.336C118.765 22.336 117.253 21.728 116.037 20.512C114.837 19.296 114.237 17.792 114.237 16C114.237 14.208 114.837 12.704 116.037 11.488C117.253 10.272 118.765 9.664 120.573 9.664C121.741 9.664 122.805 9.944 123.765 10.504C124.725 11.064 125.453 11.816 125.949 12.76L123.285 14.32C123.045 13.824 122.677 13.432 122.181 13.144C121.701 12.856 121.157 12.712 120.549 12.712C119.621 12.712 118.853 13.024 118.245 13.648C117.637 14.256 117.333 15.04 117.333 16C117.333 16.944 117.637 17.728 118.245 18.352C118.853 18.96 119.621 19.264 120.549 19.264C121.173 19.264 121.725 19.128 122.205 18.856C122.701 18.568 123.069 18.176 123.309 17.68L125.997 19.216C125.469 20.16 124.725 20.92 123.765 21.496C122.805 22.056 121.741 22.336 120.573 22.336ZM130.063 17.272C130.479 18.776 131.607 19.528 133.447 19.528C134.631 19.528 135.527 19.128 136.135 18.328L138.631 19.768C137.447 21.48 135.703 22.336 133.399 22.336C131.415 22.336 129.823 21.736 128.623 20.536C127.423 19.336 126.823 17.824 126.823 16C126.823 14.192 127.415 12.688 128.599 11.488C129.783 10.272 131.303 9.664 133.159 9.664C134.919 9.664 136.367 10.272 137.503 11.488C138.655 12.704 139.231 14.208 139.231 16C139.231 16.4 139.191 16.824 139.111 17.272H130.063ZM130.015 14.872H136.135C135.959 14.056 135.591 13.448 135.031 13.048C134.487 12.648 133.863 12.448 133.159 12.448C132.327 12.448 131.639 12.664 131.095 13.096C130.551 13.512 130.191 14.104 130.015 14.872Z" fill="white"/>
</svg>
