<svg width="120" height="116" viewBox="0 0 120 116" fill="none" xmlns="http://www.w3.org/2000/svg">
<ellipse cx="2.625" cy="2.59595" rx="2.625" ry="2.53394" fill="#FF003D"/>
<ellipse cx="15.375" cy="2.59595" rx="2.625" ry="2.53394" fill="#FF003D"/>
<ellipse cx="28.125" cy="2.59595" rx="2.625" ry="2.53394" fill="#FF003D"/>
<ellipse cx="40.875" cy="2.59595" rx="2.625" ry="2.53394" fill="#FF003D"/>
<ellipse cx="53.625" cy="2.59595" rx="2.625" ry="2.53394" fill="#FF003D"/>
<ellipse cx="66.375" cy="2.59595" rx="2.625" ry="2.53394" fill="#FF003D"/>
<ellipse cx="79.125" cy="2.59595" rx="2.625" ry="2.53394" fill="#FF003D"/>
<ellipse cx="91.875" cy="2.59595" rx="2.625" ry="2.53394" fill="#FF003D"/>
<ellipse cx="104.625" cy="2.59595" rx="2.625" ry="2.53394" fill="#FF003D"/>
<ellipse cx="117.375" cy="2.59595" rx="2.625" ry="2.53394" fill="#FF003D"/>
<ellipse cx="2.625" cy="14.9042" rx="2.625" ry="2.53406" fill="#FF003D"/>
<ellipse cx="15.375" cy="14.9042" rx="2.625" ry="2.53406" fill="#FF003D"/>
<ellipse cx="28.125" cy="14.9042" rx="2.625" ry="2.53406" fill="#FF003D"/>
<ellipse cx="40.875" cy="14.9042" rx="2.625" ry="2.53406" fill="#FF003D"/>
<ellipse cx="53.625" cy="14.9042" rx="2.625" ry="2.53406" fill="#FF003D"/>
<ellipse cx="66.375" cy="14.9042" rx="2.625" ry="2.53406" fill="#FF003D"/>
<ellipse cx="79.125" cy="14.9042" rx="2.625" ry="2.53406" fill="#FF003D"/>
<ellipse cx="91.875" cy="14.9042" rx="2.625" ry="2.53406" fill="#FF003D"/>
<ellipse cx="104.625" cy="14.9042" rx="2.625" ry="2.53406" fill="#FF003D"/>
<ellipse cx="117.375" cy="14.9042" rx="2.625" ry="2.53406" fill="#FF003D"/>
<ellipse cx="2.625" cy="27.2122" rx="2.625" ry="2.534" fill="#FF003D"/>
<ellipse cx="15.375" cy="27.2122" rx="2.625" ry="2.534" fill="#FF003D"/>
<ellipse cx="28.125" cy="27.2122" rx="2.625" ry="2.534" fill="#FF003D"/>
<ellipse cx="40.875" cy="27.2122" rx="2.625" ry="2.534" fill="#FF003D"/>
<ellipse cx="53.625" cy="27.2122" rx="2.625" ry="2.534" fill="#FF003D"/>
<ellipse cx="66.375" cy="27.2122" rx="2.625" ry="2.534" fill="#FF003D"/>
<ellipse cx="79.125" cy="27.2122" rx="2.625" ry="2.534" fill="#FF003D"/>
<ellipse cx="91.875" cy="27.2122" rx="2.625" ry="2.534" fill="#FF003D"/>
<ellipse cx="104.625" cy="27.2122" rx="2.625" ry="2.534" fill="#FF003D"/>
<ellipse cx="117.375" cy="27.2122" rx="2.625" ry="2.534" fill="#FF003D"/>
<ellipse cx="2.625" cy="39.5204" rx="2.625" ry="2.53406" fill="#FF003D"/>
<ellipse cx="15.375" cy="39.5204" rx="2.625" ry="2.53406" fill="#FF003D"/>
<ellipse cx="28.125" cy="39.5204" rx="2.625" ry="2.53406" fill="#FF003D"/>
<ellipse cx="40.875" cy="39.5204" rx="2.625" ry="2.53406" fill="#FF003D"/>
<ellipse cx="53.625" cy="39.5204" rx="2.625" ry="2.53406" fill="#FF003D"/>
<ellipse cx="66.375" cy="39.5204" rx="2.625" ry="2.53406" fill="#FF003D"/>
<ellipse cx="79.125" cy="39.5204" rx="2.625" ry="2.53406" fill="#FF003D"/>
<ellipse cx="91.875" cy="39.5204" rx="2.625" ry="2.53406" fill="#FF003D"/>
<ellipse cx="104.625" cy="39.5204" rx="2.625" ry="2.53406" fill="#FF003D"/>
<ellipse cx="117.375" cy="39.5204" rx="2.625" ry="2.53406" fill="#FF003D"/>
<ellipse cx="2.625" cy="51.8284" rx="2.625" ry="2.53412" fill="#FF003D"/>
<ellipse cx="15.375" cy="51.8284" rx="2.625" ry="2.53412" fill="#FF003D"/>
<ellipse cx="28.125" cy="51.8284" rx="2.625" ry="2.53412" fill="#FF003D"/>
<ellipse cx="40.875" cy="51.8284" rx="2.625" ry="2.53412" fill="#FF003D"/>
<ellipse cx="53.625" cy="51.8284" rx="2.625" ry="2.53412" fill="#FF003D"/>
<ellipse cx="66.375" cy="51.8284" rx="2.625" ry="2.53412" fill="#FF003D"/>
<ellipse cx="79.125" cy="51.8284" rx="2.625" ry="2.53412" fill="#FF003D"/>
<ellipse cx="91.875" cy="51.8284" rx="2.625" ry="2.53412" fill="#FF003D"/>
<ellipse cx="104.625" cy="51.8284" rx="2.625" ry="2.53412" fill="#FF003D"/>
<ellipse cx="117.375" cy="51.8284" rx="2.625" ry="2.53412" fill="#FF003D"/>
<ellipse cx="2.625" cy="64.1367" rx="2.625" ry="2.534" fill="#FF003D"/>
<ellipse cx="15.375" cy="64.1367" rx="2.625" ry="2.534" fill="#FF003D"/>
<ellipse cx="28.125" cy="64.1367" rx="2.625" ry="2.534" fill="#FF003D"/>
<ellipse cx="40.875" cy="64.1367" rx="2.625" ry="2.534" fill="#FF003D"/>
<ellipse cx="53.625" cy="64.1367" rx="2.625" ry="2.534" fill="#FF003D"/>
<ellipse cx="66.375" cy="64.1367" rx="2.625" ry="2.534" fill="#FF003D"/>
<ellipse cx="79.125" cy="64.1367" rx="2.625" ry="2.534" fill="#FF003D"/>
<ellipse cx="91.875" cy="64.1367" rx="2.625" ry="2.534" fill="#FF003D"/>
<ellipse cx="104.625" cy="64.1367" rx="2.625" ry="2.534" fill="#FF003D"/>
<ellipse cx="117.375" cy="64.1367" rx="2.625" ry="2.534" fill="#FF003D"/>
<ellipse cx="2.625" cy="76.4448" rx="2.625" ry="2.53412" fill="#FF003D"/>
<ellipse cx="15.375" cy="76.4448" rx="2.625" ry="2.53412" fill="#FF003D"/>
<ellipse cx="28.125" cy="76.4448" rx="2.625" ry="2.53412" fill="#FF003D"/>
<ellipse cx="40.875" cy="76.4448" rx="2.625" ry="2.53412" fill="#FF003D"/>
<ellipse cx="53.625" cy="76.4448" rx="2.625" ry="2.53412" fill="#FF003D"/>
<ellipse cx="66.375" cy="76.4448" rx="2.625" ry="2.53412" fill="#FF003D"/>
<ellipse cx="79.125" cy="76.4448" rx="2.625" ry="2.53412" fill="#FF003D"/>
<ellipse cx="91.875" cy="76.4448" rx="2.625" ry="2.53412" fill="#FF003D"/>
<ellipse cx="104.625" cy="76.4448" rx="2.625" ry="2.53412" fill="#FF003D"/>
<ellipse cx="117.375" cy="76.4448" rx="2.625" ry="2.53412" fill="#FF003D"/>
<ellipse cx="2.625" cy="88.7527" rx="2.625" ry="2.53406" fill="#FF003D"/>
<ellipse cx="15.375" cy="88.7527" rx="2.625" ry="2.53406" fill="#FF003D"/>
<ellipse cx="28.125" cy="88.7527" rx="2.625" ry="2.53406" fill="#FF003D"/>
<ellipse cx="40.875" cy="88.7527" rx="2.625" ry="2.53406" fill="#FF003D"/>
<ellipse cx="53.625" cy="88.7527" rx="2.625" ry="2.53406" fill="#FF003D"/>
<ellipse cx="66.375" cy="88.7527" rx="2.625" ry="2.53406" fill="#FF003D"/>
<ellipse cx="79.125" cy="88.7527" rx="2.625" ry="2.53406" fill="#FF003D"/>
<ellipse cx="91.875" cy="88.7527" rx="2.625" ry="2.53406" fill="#FF003D"/>
<ellipse cx="104.625" cy="88.7527" rx="2.625" ry="2.53406" fill="#FF003D"/>
<ellipse cx="117.375" cy="88.7527" rx="2.625" ry="2.53406" fill="#FF003D"/>
<ellipse cx="2.625" cy="101.061" rx="2.625" ry="2.534" fill="#FF003D"/>
<ellipse cx="15.375" cy="101.061" rx="2.625" ry="2.534" fill="#FF003D"/>
<ellipse cx="28.125" cy="101.061" rx="2.625" ry="2.534" fill="#FF003D"/>
<ellipse cx="40.875" cy="101.061" rx="2.625" ry="2.534" fill="#FF003D"/>
<ellipse cx="53.625" cy="101.061" rx="2.625" ry="2.534" fill="#FF003D"/>
<ellipse cx="66.375" cy="101.061" rx="2.625" ry="2.534" fill="#FF003D"/>
<ellipse cx="79.125" cy="101.061" rx="2.625" ry="2.534" fill="#FF003D"/>
<ellipse cx="91.875" cy="101.061" rx="2.625" ry="2.534" fill="#FF003D"/>
<ellipse cx="104.625" cy="101.061" rx="2.625" ry="2.534" fill="#FF003D"/>
<ellipse cx="117.375" cy="101.061" rx="2.625" ry="2.534" fill="#FF003D"/>
<ellipse cx="2.625" cy="113.369" rx="2.625" ry="2.53394" fill="#FF003D"/>
<ellipse cx="15.375" cy="113.369" rx="2.625" ry="2.53394" fill="#FF003D"/>
<ellipse cx="28.125" cy="113.369" rx="2.625" ry="2.53394" fill="#FF003D"/>
<ellipse cx="40.875" cy="113.369" rx="2.625" ry="2.53394" fill="#FF003D"/>
<ellipse cx="53.625" cy="113.369" rx="2.625" ry="2.53394" fill="#FF003D"/>
<ellipse cx="66.375" cy="113.369" rx="2.625" ry="2.53394" fill="#FF003D"/>
<ellipse cx="79.125" cy="113.369" rx="2.625" ry="2.53394" fill="#FF003D"/>
<ellipse cx="91.875" cy="113.369" rx="2.625" ry="2.53394" fill="#FF003D"/>
<ellipse cx="104.625" cy="113.369" rx="2.625" ry="2.53394" fill="#FF003D"/>
<ellipse cx="117.375" cy="113.369" rx="2.625" ry="2.53394" fill="#FF003D"/>
</svg>
