<svg width="120" height="120" viewBox="0 0 120 120" fill="none" xmlns="http://www.w3.org/2000/svg">
<circle cx="2.625" cy="2.625" r="2.625" fill="#696969"/>
<circle cx="15.375" cy="2.625" r="2.625" fill="#696969"/>
<circle cx="28.125" cy="2.625" r="2.625" fill="#696969"/>
<circle cx="40.875" cy="2.625" r="2.625" fill="#696969"/>
<circle cx="53.625" cy="2.625" r="2.625" fill="#696969"/>
<circle cx="66.375" cy="2.625" r="2.625" fill="#696969"/>
<circle cx="79.125" cy="2.625" r="2.625" fill="#696969"/>
<circle cx="91.875" cy="2.625" r="2.625" fill="#696969"/>
<circle cx="104.625" cy="2.625" r="2.625" fill="#696969"/>
<circle cx="117.375" cy="2.625" r="2.625" fill="#696969"/>
<circle cx="2.625" cy="15.375" r="2.625" fill="#696969"/>
<circle cx="15.375" cy="15.375" r="2.625" fill="#696969"/>
<circle cx="28.125" cy="15.375" r="2.625" fill="#696969"/>
<circle cx="40.875" cy="15.375" r="2.625" fill="#696969"/>
<circle cx="53.625" cy="15.375" r="2.625" fill="#696969"/>
<circle cx="66.375" cy="15.375" r="2.625" fill="#696969"/>
<circle cx="79.125" cy="15.375" r="2.625" fill="#696969"/>
<circle cx="91.875" cy="15.375" r="2.625" fill="#696969"/>
<circle cx="104.625" cy="15.375" r="2.625" fill="#696969"/>
<circle cx="117.375" cy="15.375" r="2.625" fill="#696969"/>
<circle cx="2.625" cy="28.125" r="2.625" fill="#696969"/>
<circle cx="15.375" cy="28.125" r="2.625" fill="#696969"/>
<circle cx="28.125" cy="28.125" r="2.625" fill="#696969"/>
<circle cx="40.875" cy="28.125" r="2.625" fill="#696969"/>
<circle cx="53.625" cy="28.125" r="2.625" fill="#696969"/>
<circle cx="66.375" cy="28.125" r="2.625" fill="#696969"/>
<circle cx="79.125" cy="28.125" r="2.625" fill="#696969"/>
<circle cx="91.875" cy="28.125" r="2.625" fill="#696969"/>
<circle cx="104.625" cy="28.125" r="2.625" fill="#696969"/>
<circle cx="117.375" cy="28.125" r="2.625" fill="#696969"/>
<circle cx="2.625" cy="40.875" r="2.625" fill="#696969"/>
<circle cx="15.375" cy="40.875" r="2.625" fill="#696969"/>
<circle cx="28.125" cy="40.875" r="2.625" fill="#696969"/>
<circle cx="40.875" cy="40.875" r="2.625" fill="#696969"/>
<circle cx="53.625" cy="40.875" r="2.625" fill="#696969"/>
<circle cx="66.375" cy="40.875" r="2.625" fill="#696969"/>
<circle cx="79.125" cy="40.875" r="2.625" fill="#696969"/>
<circle cx="91.875" cy="40.875" r="2.625" fill="#696969"/>
<circle cx="104.625" cy="40.875" r="2.625" fill="#696969"/>
<circle cx="117.375" cy="40.875" r="2.625" fill="#696969"/>
<circle cx="2.625" cy="53.625" r="2.625" fill="#696969"/>
<circle cx="15.375" cy="53.625" r="2.625" fill="#696969"/>
<circle cx="28.125" cy="53.625" r="2.625" fill="#696969"/>
<circle cx="40.875" cy="53.625" r="2.625" fill="#696969"/>
<circle cx="53.625" cy="53.625" r="2.625" fill="#696969"/>
<circle cx="66.375" cy="53.625" r="2.625" fill="#696969"/>
<circle cx="79.125" cy="53.625" r="2.625" fill="#696969"/>
<circle cx="91.875" cy="53.625" r="2.625" fill="#696969"/>
<circle cx="104.625" cy="53.625" r="2.625" fill="#696969"/>
<circle cx="117.375" cy="53.625" r="2.625" fill="#696969"/>
<circle cx="2.625" cy="66.375" r="2.625" fill="#696969"/>
<circle cx="15.375" cy="66.375" r="2.625" fill="#696969"/>
<circle cx="28.125" cy="66.375" r="2.625" fill="#696969"/>
<circle cx="40.875" cy="66.375" r="2.625" fill="#696969"/>
<circle cx="53.625" cy="66.375" r="2.625" fill="#696969"/>
<circle cx="66.375" cy="66.375" r="2.625" fill="#696969"/>
<circle cx="79.125" cy="66.375" r="2.625" fill="#696969"/>
<circle cx="91.875" cy="66.375" r="2.625" fill="#696969"/>
<circle cx="104.625" cy="66.375" r="2.625" fill="#696969"/>
<circle cx="117.375" cy="66.375" r="2.625" fill="#696969"/>
<circle cx="2.625" cy="79.125" r="2.625" fill="#696969"/>
<circle cx="15.375" cy="79.125" r="2.625" fill="#696969"/>
<circle cx="28.125" cy="79.125" r="2.625" fill="#696969"/>
<circle cx="40.875" cy="79.125" r="2.625" fill="#696969"/>
<circle cx="53.625" cy="79.125" r="2.625" fill="#696969"/>
<circle cx="66.375" cy="79.125" r="2.625" fill="#696969"/>
<circle cx="79.125" cy="79.125" r="2.625" fill="#696969"/>
<circle cx="91.875" cy="79.125" r="2.625" fill="#696969"/>
<circle cx="104.625" cy="79.125" r="2.625" fill="#696969"/>
<circle cx="117.375" cy="79.125" r="2.625" fill="#696969"/>
<circle cx="2.625" cy="91.875" r="2.625" fill="#696969"/>
<circle cx="15.375" cy="91.875" r="2.625" fill="#696969"/>
<circle cx="28.125" cy="91.875" r="2.625" fill="#696969"/>
<circle cx="40.875" cy="91.875" r="2.625" fill="#696969"/>
<circle cx="53.625" cy="91.875" r="2.625" fill="#696969"/>
<circle cx="66.375" cy="91.875" r="2.625" fill="#696969"/>
<circle cx="79.125" cy="91.875" r="2.625" fill="#696969"/>
<circle cx="91.875" cy="91.875" r="2.625" fill="#696969"/>
<circle cx="104.625" cy="91.875" r="2.625" fill="#696969"/>
<circle cx="117.375" cy="91.875" r="2.625" fill="#696969"/>
<circle cx="2.625" cy="104.625" r="2.625" fill="#696969"/>
<circle cx="15.375" cy="104.625" r="2.625" fill="#696969"/>
<circle cx="28.125" cy="104.625" r="2.625" fill="#696969"/>
<circle cx="40.875" cy="104.625" r="2.625" fill="#696969"/>
<circle cx="53.625" cy="104.625" r="2.625" fill="#696969"/>
<circle cx="66.375" cy="104.625" r="2.625" fill="#696969"/>
<circle cx="79.125" cy="104.625" r="2.625" fill="#696969"/>
<circle cx="91.875" cy="104.625" r="2.625" fill="#696969"/>
<circle cx="104.625" cy="104.625" r="2.625" fill="#696969"/>
<circle cx="117.375" cy="104.625" r="2.625" fill="#696969"/>
<circle cx="2.625" cy="117.375" r="2.625" fill="#696969"/>
<circle cx="15.375" cy="117.375" r="2.625" fill="#696969"/>
<circle cx="28.125" cy="117.375" r="2.625" fill="#696969"/>
<circle cx="40.875" cy="117.375" r="2.625" fill="#696969"/>
<circle cx="53.625" cy="117.375" r="2.625" fill="#696969"/>
<circle cx="66.375" cy="117.375" r="2.625" fill="#696969"/>
<circle cx="79.125" cy="117.375" r="2.625" fill="#696969"/>
<circle cx="91.875" cy="117.375" r="2.625" fill="#696969"/>
<circle cx="104.625" cy="117.375" r="2.625" fill="#696969"/>
<circle cx="117.375" cy="117.375" r="2.625" fill="#696969"/>
</svg>
