<svg width="586" height="707" viewBox="0 0 586 707" fill="none" xmlns="http://www.w3.org/2000/svg">
<rect x="0.00390625" width="581.242" height="706.284" rx="50" fill="#FF003D"/>
<circle cx="390.592" cy="459.803" r="142.5" transform="rotate(-30 390.592 459.803)" fill="#FFFF24"/>
<mask id="mask0" mask-type="alpha" maskUnits="userSpaceOnUse" x="0" y="0" width="582" height="707">
<path d="M-3.17598e-06 50.0015C-1.42194e-06 22.3873 22.3858 0.00146627 50 0.00146802L531.242 0.00149859C558.856 0.00150034 581.242 22.3873 581.242 50.0015L581.242 656.285C581.242 683.899 558.856 706.285 531.242 706.285L49.9999 706.285C22.3857 706.285 -4.34409e-05 683.899 -4.16869e-05 656.285L-3.17598e-06 50.0015Z" fill="#FF003D"/>
</mask>
<g mask="url(#mask0)">
<path d="M-92.836 724.482C-35.1332 711.759 78.6551 671.313 72.1861 611.308C64.0999 536.302 13.3678 452.432 170.865 404.225C328.362 356.018 323.834 314.176 316.627 227.693" stroke="#FF9E9E"/>
<path d="M112.413 758.98C116.729 711.455 149.727 617.81 247.195 623.429C369.029 630.452 505.043 702.036 553.517 598.994C601.99 495.952 534.351 361.799 648.194 328.98" stroke="#FF9E9E"/>
</g>
</svg>
