<svg width="127" height="117" viewBox="0 0 127 117" fill="none" xmlns="http://www.w3.org/2000/svg">
<rect x="12.5" y="2.5" width="112" height="112" stroke="#FF003D" stroke-width="5"/>
<path d="M68.9987 64.125C71.032 64.125 72.9821 63.3348 74.4199 61.9283C75.8576 60.5218 76.6654 58.6141 76.6654 56.625V47.25C76.6654 45.2609 75.8576 43.3532 74.4199 41.9467C72.9821 40.5402 71.032 39.75 68.9987 39.75C66.9654 39.75 65.0153 40.5402 63.5775 41.9467C62.1398 43.3532 61.332 45.2609 61.332 47.25V56.625C61.332 58.6141 62.1398 60.5218 63.5775 61.9283C65.0153 63.3348 66.9654 64.125 68.9987 64.125ZM65.1654 47.25C65.1654 46.2554 65.5692 45.3016 66.2881 44.5983C67.007 43.8951 67.982 43.5 68.9987 43.5C70.0154 43.5 70.9904 43.8951 71.7093 44.5983C72.4282 45.3016 72.832 46.2554 72.832 47.25V56.625C72.832 57.6196 72.4282 58.5734 71.7093 59.2766C70.9904 59.9799 70.0154 60.375 68.9987 60.375C67.982 60.375 67.007 59.9799 66.2881 59.2766C65.5692 58.5734 65.1654 57.6196 65.1654 56.625V47.25Z" fill="white"/>
<path d="M82.4154 56.625C82.4154 56.1277 82.2134 55.6508 81.854 55.2992C81.4945 54.9475 81.007 54.75 80.4987 54.75C79.9904 54.75 79.5029 54.9475 79.1434 55.2992C78.784 55.6508 78.582 56.1277 78.582 56.625C78.582 59.1114 77.5724 61.496 75.7751 63.2541C73.9779 65.0123 71.5404 66 68.9987 66C66.457 66 64.0195 65.0123 62.2223 63.2541C60.425 61.496 59.4154 59.1114 59.4154 56.625C59.4154 56.1277 59.2134 55.6508 58.854 55.2992C58.4945 54.9475 58.007 54.75 57.4987 54.75C56.9904 54.75 56.5029 54.9475 56.1434 55.2992C55.784 55.6508 55.582 56.1277 55.582 56.625C55.5858 59.7785 56.7501 62.8252 58.8618 65.2078C60.9735 67.5903 63.8916 69.1495 67.082 69.6V73.5H63.0379C62.5855 73.5 62.1516 73.6758 61.8317 73.9888C61.5118 74.3017 61.332 74.7262 61.332 75.1687V75.5813C61.332 76.0238 61.5118 76.4483 61.8317 76.7612C62.1516 77.0742 62.5855 77.25 63.0379 77.25H74.9595C75.4119 77.25 75.8458 77.0742 76.1657 76.7612C76.4856 76.4483 76.6654 76.0238 76.6654 75.5813V75.1687C76.6654 74.7262 76.4856 74.3017 76.1657 73.9888C75.8458 73.6758 75.4119 73.5 74.9595 73.5H70.9154V69.6C74.1058 69.1495 77.0239 67.5903 79.1356 65.2078C81.2473 62.8252 82.4116 59.7785 82.4154 56.625Z" fill="white"/>
<circle cx="16.5" cy="74.5" r="16.5" fill="#FFFF24"/>
</svg>
